<?xml version="1.0" encoding="utf-8"?>
<!-- Generator: Adobe Illustrator 23.0.3, SVG Export Plug-In . SVG Version: 6.00 Build 0)  -->
<svg version="1.1" id="Layer_1" xmlns="http://www.w3.org/2000/svg" xmlns:xlink="http://www.w3.org/1999/xlink" x="0px" y="0px"
	 viewBox="0 0 24 24" style="enable-background:new 0 0 24 24;" xml:space="preserve">
<style type="text/css">
	.st0{fill:#FFFFFF;}
</style>
<title>Artboard 4 copy 2</title>
<g>
	<g id="Group_529">
		<path id="Path_61" class="st0" d="M15,0v6h6L15,0z"/>
		<path class="st0" d="M15,7.5c-0.8,0-1.5-0.7-1.5-1.5V0h-9C3.7,0,3,0.7,3,1.5v21C3,23.3,3.7,24,4.5,24h15c0.8,0,1.5-0.7,1.5-1.5
			v-15H15z M17.2,9.1c0.4,0,0.8,0.3,0.8,0.8s-0.3,0.8-0.8,0.8H6.8C6.3,10.6,6,10.3,6,9.9s0.3-0.8,0.8-0.8H17.2z M6.6,2.9h3
			c0.4,0,0.8,0.3,0.8,0.7l0,0c0,0.4-0.3,0.8-0.8,0.8h-3c-0.4,0-0.8-0.3-0.8-0.8S6.2,2.9,6.6,2.9z M6.6,5.9h3c0.4,0,0.8,0.3,0.8,0.8
			S10,7.4,9.6,7.4h-3c-0.4,0-0.8-0.3-0.8-0.8S6.2,5.9,6.6,5.9z M6,12.9c0-0.4,0.3-0.8,0.8-0.8h10.5c0.4,0,0.8,0.3,0.8,0.8
			s-0.3,0.8-0.8,0.8H6.8C6.3,13.6,6,13.3,6,12.9z M6.4,16.5H8v1.6h5.4v1.6h-7L6.4,16.5z M14.2,22.3l-1.1-1.1l2.3-2.3l-2.3-2.3
			l1.1-1.1l3.4,3.4L14.2,22.3z"/>
	</g>
</g>
</svg>
