<?xml version="1.0" encoding="utf-8"?>
<!-- Generator: Adobe Illustrator 21.0.0, SVG Export Plug-In . SVG Version: 6.00 Build 0)  -->
<svg version="1.1" id="Capa_1" xmlns="http://www.w3.org/2000/svg" xmlns:xlink="http://www.w3.org/1999/xlink" x="0px" y="0px"
     viewBox="0 0 24 24" style="enable-background:new 0 0 24 24;" xml:space="preserve">
<style type="text/css">
    .st0{fill:#636363;}
</style>
<g>
    <g>
        <path class="st0" d="M23.3,20.2l-5.5-5.5c-0.8,1.3-1.9,2.4-3.2,3.2l5.5,5.5c0.9,0.9,2.3,0.9,3.2,0C24.2,22.5,24.2,21,23.3,20.2z"
            />
        <path class="st0" d="M18,9c0-5-4-9-9-9C4,0,0,4,0,9s4,9,9,9C14,18,18,14,18,9z M9,15.7c-3.7,0-6.7-3-6.7-6.7s3-6.7,6.7-6.7
            c3.7,0,6.7,3,6.7,6.7S12.7,15.7,9,15.7z"/>
        <path class="st0" d="M3.8,9h1.5c0-2.1,1.7-3.7,3.7-3.7V3.7C6.1,3.7,3.8,6.1,3.8,9z"/>
    </g>
</g>
</svg>