<?xml version="1.0" encoding="utf-8"?>
<!-- Generator: Adobe Illustrator 23.0.3, SVG Export Plug-In . SVG Version: 6.00 Build 0)  -->
<svg version="1.1" id="Layer_1" xmlns="http://www.w3.org/2000/svg" xmlns:xlink="http://www.w3.org/1999/xlink" x="0px" y="0px"
	 viewBox="0 0 24 24" style="enable-background:new 0 0 24 24;" xml:space="preserve">
<style type="text/css">
	.st0{fill-rule:evenodd;clip-rule:evenodd;fill:#FFFFFF;}
	.st1{fill:#FFFFFF;}
</style>
<title>Artboard 4</title>
<g>
	<path class="st0" d="M23.6,5.5L18,1.6c0,0-0.2-0.1-0.2-0.1L12.2,0c-0.1,0-0.3,0-0.4,0L6.2,1.5C6.1,1.6,6,1.6,5.9,1.7L0.3,5.5
		C0.1,5.6,0,5.9,0,6.1v17.2C0,23.7,0.3,24,0.7,24c0,0,0,0,0,0v0h2.8c0.4,0,0.7-0.3,0.7-0.7V9.2h15.6v14.1c0,0.4,0.3,0.7,0.7,0.7h2.8
		c0.4,0,0.7-0.3,0.7-0.7V6.1C24,5.8,23.9,5.6,23.6,5.5L23.6,5.5z M16.8,5.7H7.2C6.8,5.7,6.5,5.4,6.5,5c0-0.4,0.3-0.7,0.7-0.7h9.7
		c0.4,0,0.7,0.3,0.7,0.7C17.5,5.4,17.2,5.7,16.8,5.7z"/>
	<polygon class="st1" points="13.1,10.3 13.1,11 11.4,11 11.4,10.3 9.2,10.3 9.2,16.4 15.3,16.4 15.3,10.3 	"/>
	<polygon class="st1" points="9.1,17.1 9.1,17.8 7.3,17.8 7.3,17.1 5.1,17.1 5.1,23.3 11.3,23.3 11.3,17.1 	"/>
	<polygon class="st1" points="16.7,17.1 16.7,17.8 14.9,17.8 14.9,17.1 12.7,17.1 12.7,23.3 18.9,23.3 18.9,17.1 	"/>
</g>
</svg>
