<?xml version="1.0" encoding="utf-8"?>
<!-- Generator: Adobe Illustrator 21.0.0, SVG Export Plug-In . SVG Version: 6.00 Build 0)  -->
<svg version="1.1" id="Capa_1" xmlns="http://www.w3.org/2000/svg" xmlns:xlink="http://www.w3.org/1999/xlink" x="0px" y="0px"
     viewBox="0 0 13.9 13.9" style="enable-background:new 0 0 13.9 13.9;" xml:space="preserve">
<g>
    <g style="fill:#a32327;">
        <path d="M6.9,0C3.1,0,0,3.1,0,6.9s3.1,6.9,6.9,6.9s6.9-3.1,6.9-6.9S10.8,0,6.9,0z M6.9,12.4c-3,0-5.5-2.5-5.5-5.5s2.5-5.5,5.5-5.5
            s5.5,2.5,5.5,5.5S10,12.4,6.9,12.4z"/>
        <path d="M10.6,6.7H7.4V3c0-0.3-0.3-0.6-0.6-0.6S6.3,2.7,6.3,3v4.3c0,0.3,0.3,0.6,0.6,0.6h3.7c0.3,0,0.6-0.3,0.6-0.6
            S10.9,6.7,10.6,6.7z"/>
    </g>
</g>
</svg>